<svg xmlns="http://www.w3.org/2000/svg" viewBox="0 0 64 64">
  <rect width="64" height="64" rx="14" fill="#020617"/>
  <path fill="#fff" d="M32 12c-11.05 0-20 8.95-20 20 0 8.84 5.73 16.34 13.68 18.99 1 .18 1.37-.43 1.37-.96 0-.47-.02-1.73-.03-3.4-5.56 1.21-6.73-2.68-6.73-2.68-.91-2.31-2.22-2.93-2.22-2.93-1.82-1.24.14-1.22.14-1.22 2.01.14 3.07 2.07 3.07 2.07 1.79 3.06 4.69 2.18 5.83 1.67.18-1.3.7-2.18 1.27-2.68-4.44-.5-9.11-2.22-9.11-9.89 0-2.18.78-3.97 2.06-5.37-.21-.51-.89-2.55.2-5.3 0 0 1.68-.54 5.5 2.05A19.2 19.2 0 0 1 32 21.67c1.7.01 3.4.23 4.99.67 3.82-2.59 5.5-2.05 5.5-2.05 1.09 2.75.41 4.79.2 5.3 1.28 1.4 2.06 3.19 2.06 5.37 0 7.69-4.68 9.38-9.14 9.88.72.62 1.36 1.84 1.36 3.71 0 2.68-.02 4.84-.02 5.5 0 .53.36 1.15 1.38.95C46.28 48.33 52 40.83 52 32c0-11.05-8.95-20-20-20Z"/>
  <circle cx="48" cy="48" r="7" fill="#14b8a6"/>
</svg>
